<?xml version="1.0" encoding="utf-8"?>
<!-- Generator: Adobe Illustrator 19.1.0, SVG Export Plug-In . SVG Version: 6.00 Build 0)  -->
<svg version="1.1" id="Layer_1" xmlns="http://www.w3.org/2000/svg" xmlns:xlink="http://www.w3.org/1999/xlink" x="0px" y="0px"
	 viewBox="639.7 0 70 70" style="enable-background:new 639.7 0 70 70;" xml:space="preserve">
<style type="text/css">
	.st0{fill:#EF3F3F;}
	.st1{fill:#FFFFFF;}
</style>
<g id="Layer_1_1_">
	<path class="st0" d="M639.7,0h70v70h-70V0z"/>
</g>
<g id="Layer_2">
	<path class="st1" d="M667.2,27.2c-0.1,0.1-0.3,0.2-0.7,0.2h-1.2c-0.4,0-0.6-0.1-0.7-0.2c-0.1-0.1-0.2-0.3-0.2-0.7v-2.3h-2.7v2.7
		c0,1.7,0.9,2.6,2.8,2.6h2.9c1.9,0,2.8-0.9,2.8-2.6v-5.3c0-1.7-0.9-2.6-2.7-2.6h-2.2c-0.4,0-0.6-0.1-0.7-0.2
		c-0.1-0.1-0.2-0.3-0.2-0.7V14c0-0.4,0.1-0.6,0.2-0.7c0.1-0.1,0.4-0.2,0.7-0.2h1.2c0.4,0,0.6,0.1,0.7,0.2c0.1,0.1,0.2,0.3,0.2,0.7
		v2.3h2.7v-2.7c0-1.7-0.9-2.6-2.8-2.6h-2.9c-1.8,0-2.8,0.9-2.8,2.6v4.9c0,1.8,0.9,2.6,2.7,2.6h2.2c0.4,0,0.6,0.1,0.7,0.2
		c0.1,0.1,0.2,0.3,0.2,0.7v4.5C667.4,26.9,667.3,27.1,667.2,27.2z"/>
	<path class="st1" d="M681.2,13.3l1.7,9.8h-3.2L681.2,13.3z M686.7,29.5l-3.5-18.6h-3.9L676,29.5h2.7l0.7-4.3h3.9l0.7,4.3H686.7z"/>
	<path class="st1" d="M670.3,35.8c0-1.7-0.9-2.6-2.8-2.6h-3.2c-1.8,0-2.8,0.9-2.8,2.6v13.4c0,1.8,0.9,2.6,2.8,2.6h3.2
		c1.8,0,2.8-0.9,2.8-2.6v-7h-4.2v2.1h1.5v4.5c0,0.4-0.1,0.6-0.2,0.7c-0.1,0.1-0.4,0.2-0.7,0.2h-1.5c-0.4,0-0.6-0.1-0.7-0.2
		c-0.1-0.1-0.2-0.3-0.2-0.7V36.1c0-0.4,0.1-0.6,0.2-0.7c0.1-0.1,0.4-0.2,0.7-0.2h1.5c0.4,0,0.6,0.1,0.7,0.2c0.1,0.1,0.2,0.3,0.2,0.7
		v2.5h2.7V35.8z"/>
	<path class="st1" d="M680.2,43.3h4.3v-2.2h-4.3v-5.7h5.2v-2.2h-7.9v18.6h8.1v-2.2h-5.4L680.2,43.3L680.2,43.3z"/>
	<path class="st1" d="M661.8,54.8h23.8v2.4h-23.8V54.8z"/>
</g>
</svg>
