<?xml version="1.0" encoding="utf-8"?>
<!-- Generator: Adobe Illustrator 19.1.0, SVG Export Plug-In . SVG Version: 6.00 Build 0)  -->
<svg version="1.1" id="Layer_1" xmlns="http://www.w3.org/2000/svg" xmlns:xlink="http://www.w3.org/1999/xlink" x="0px" y="0px"
	 viewBox="-625 376.8 27.1 48.2" style="enable-background:new -625 376.8 27.1 48.2;" xml:space="preserve">
<style type="text/css">
	.st0{fill:#FFFFFF;}
</style>
<path class="st0" d="M-618.4,394.1c-0.1,0.1-0.3,0.2-0.7,0.2h-1.2c-0.4,0-0.6-0.1-0.7-0.2c-0.1-0.1-0.2-0.3-0.2-0.7v-2.3h-2.7v2.7
	c0,1.7,0.9,2.6,2.8,2.6h2.9c1.9,0,2.8-0.9,2.8-2.6v-5.3c-0.1-1.8-1-2.7-2.8-2.7h-2.2c-0.3,0-0.6,0-0.7-0.1c-0.1-0.2-0.2-0.4-0.2-0.7
	v-4.2c0-0.4,0.1-0.6,0.2-0.7c0.1-0.1,0.4-0.1,0.7-0.1h1.2c0.4,0,0.6,0.1,0.7,0.2c0.2,0,0.3,0.3,0.3,0.6v2.3h2.7v-2.7
	c0-1.7-1-2.6-2.8-2.6h-2.9c-1.8,0-2.8,0.9-2.8,2.6v4.9c0,1.8,0.9,2.6,2.7,2.6h2.2c0.4,0,0.6,0.1,0.7,0.2c0.1,0.1,0.2,0.3,0.2,0.7
	v4.5C-618.2,393.7-618.3,394-618.4,394.1z"/>
<path class="st0" d="M-604.4,380.1l1.7,9.8h-3.2L-604.4,380.1z M-598.9,396.4l-3.5-18.6h-3.9l-3.3,18.6h2.7l0.7-4.3h3.9l0.7,4.3
	H-598.9z"/>
<path class="st0" d="M-615.3,402.7c0-1.7-0.9-2.6-2.8-2.6h-3.1c-1.8,0-2.8,0.9-2.8,2.6v13.4c0,1.8,0.9,2.6,2.8,2.6h3.2
	c1.8,0,2.8-0.9,2.8-2.6v-7h-4.3v2.1h1.5v4.5c0,0.4-0.1,0.6-0.2,0.7c-0.1,0.1-0.4,0.2-0.7,0.2h-1.5c-0.4,0-0.6-0.1-0.7-0.2
	c-0.1-0.1-0.2-0.3-0.2-0.7v-12.6c0-0.4,0.1-0.6,0.2-0.7c0.1-0.1,0.4-0.2,0.7-0.2h1.5c0.4,0,0.6,0.1,0.7,0.2c0.1,0.1,0.2,0.3,0.2,0.7
	v2.5h2.7V402.7z"/>
<path class="st0" d="M-605.4,410.2h4.3V408h-4.3v-5.7h5.2v-2.2h-7.9v18.6h8.1v-2.2h-5.4V410.2z"/>
<path class="st0" d="M-623.8,421.7h23.8v2.4h-23.8V421.7z"/>
</svg>
